<svg xmlns="http://www.w3.org/2000/svg" width="72" height="72" viewBox="0 0 72 72" id="line-electric-wave-pulse-resistance-resist"><path d="M15.217 0A15.184 15.184 0 0 0 0 15.217v41.566C0 65.213 6.787 72 15.217 72h41.566C65.213 72 72 65.213 72 56.783V15.217C72 6.787 65.213 0 56.783 0H15.217zm16.002 29c1.197 0 2.151.78 2.875 1.781.724 1.001 1.294 2.277 1.843 3.532.55 1.254 1.066 2.463 1.626 3.343.56.88 1.087 1.344 1.656 1.344.695 0 1.089-.238 1.437-.625.349-.387.62-.947.875-1.563.255-.615.487-1.264.875-1.812.389-.548 1.009-1 1.813-1 .45 0 .853.184 1.156.469.303.284.522.657.719 1.062.394.81.717 1.804 1.093 2.782.377.977.81 1.924 1.438 2.593.627.67 1.402 1.094 2.594 1.094h14a.52.52 0 0 1 .508.5c0 .264-.244.5-.508.5h-14c-13.897-.21-11.557 0-30 0H6.78a.52.52 0 0 1-.508-.5c0-.264.244-.5.508-.5H21.22c1.198 0 2.129-.696 2.968-1.844.84-1.148 1.536-2.729 2.188-4.343.652-1.615 1.25-3.258 1.969-4.532.36-.637.752-1.181 1.218-1.593.467-.413 1.027-.688 1.657-.688z"></path></svg>